<svg width="37" height="37" viewBox="0 0 37 37" fill="none" xmlns="http://www.w3.org/2000/svg">
<g clip-path="url(#clip0_1_6784)">
<path d="M36.1743 19.0589C36.1743 17.597 36.0529 16.5301 35.7901 15.4238H18.7051V22.0222H28.7336C28.5315 23.662 27.4397 26.1315 25.0134 27.7909L24.9793 28.0119L30.3813 32.1009L30.7556 32.1374C34.1927 29.0356 36.1743 24.472 36.1743 19.0589Z" fill="#4285F4"/>
<path d="M18.7053 36.4435C23.6185 36.4435 27.7431 34.8629 30.7558 32.1367L25.0136 27.7903C23.477 28.8373 21.4146 29.5683 18.7053 29.5683C13.8932 29.5683 9.80903 26.4667 8.35313 22.1797L8.13973 22.1974L2.52268 26.4449L2.44922 26.6445C5.4416 32.4527 11.5882 36.4435 18.7053 36.4435Z" fill="#34A853"/>
<path d="M8.3527 22.1802C7.96855 21.0739 7.74622 19.8885 7.74622 18.6637C7.74622 17.4387 7.96855 16.2534 8.33249 15.1471L8.32231 14.9115L2.63487 10.5957L2.44879 10.6822C1.21548 13.0924 0.507812 15.7991 0.507812 18.6637C0.507812 21.5283 1.21548 24.2348 2.44879 26.645L8.3527 22.1802Z" fill="#FBBC05"/>
<path d="M18.7053 7.75784C22.1223 7.75784 24.4272 9.20001 25.7415 10.4052L30.8771 5.5057C27.723 2.6411 23.6185 0.882812 18.7053 0.882812C11.5882 0.882812 5.4416 4.87348 2.44922 10.6817L8.33292 15.1466C9.80904 10.8596 13.8932 7.75784 18.7053 7.75784Z" fill="#EB4335"/>
</g>
<defs>
<clipPath id="clip0_1_6784">
<rect width="35.6833" height="35.6833" fill="white" transform="translate(0.507812 0.882812)"/>
</clipPath>
</defs>
</svg>
