<svg width="239" height="240" viewBox="0 0 239 240" fill="none" xmlns="http://www.w3.org/2000/svg">
<g filter="url(#filter0_d_103_10329)">
<rect x="78.2188" y="65.6455" width="82.3165" height="82.4245" rx="41.1582" fill="#EAF3FB"/>
<path d="M108.295 103.788C107.844 103.788 107.41 103.857 106.979 103.92C107.118 103.45 107.262 102.972 107.493 102.542C107.724 101.918 108.085 101.377 108.443 100.832C108.743 100.243 109.272 99.8438 109.661 99.3393C110.068 98.849 110.623 98.5229 111.063 98.1156C111.494 97.6902 112.06 97.4775 112.509 97.1776C112.979 96.9082 113.389 96.6104 113.826 96.4685L114.918 96.0188L115.879 95.6197L114.896 91.6934L113.686 91.9851C113.299 92.0823 112.827 92.1958 112.291 92.3315C111.742 92.4328 111.156 92.7104 110.504 92.9636C109.859 93.2513 109.114 93.4458 108.421 93.9077C107.724 94.3494 106.92 94.7181 106.211 95.3097C105.524 95.9195 104.695 96.4483 104.083 97.2242C103.415 97.9495 102.754 98.7113 102.242 99.5784C101.648 100.405 101.245 101.313 100.82 102.21C100.435 103.108 100.125 104.025 99.8715 104.917C99.3913 106.704 99.1766 108.401 99.0935 109.854C99.0246 111.309 99.0651 112.518 99.1502 113.393C99.1806 113.807 99.2373 114.208 99.2779 114.485L99.3285 114.826L99.3812 114.814C99.7415 116.497 100.571 118.044 101.774 119.275C102.976 120.507 104.503 121.372 106.178 121.772C107.852 122.172 109.605 122.09 111.235 121.535C112.864 120.981 114.303 119.976 115.385 118.637C116.468 117.299 117.149 115.681 117.35 113.971C117.552 112.262 117.265 110.53 116.523 108.977C115.781 107.423 114.615 106.112 113.159 105.194C111.703 104.275 110.017 103.788 108.295 103.788ZM130.581 103.788C130.129 103.788 129.696 103.857 129.264 103.92C129.404 103.45 129.548 102.972 129.779 102.542C130.01 101.918 130.37 101.377 130.729 100.832C131.029 100.243 131.557 99.8438 131.946 99.3393C132.354 98.849 132.909 98.5229 133.348 98.1156C133.78 97.6902 134.345 97.4775 134.795 97.1776C135.265 96.9082 135.674 96.6104 136.112 96.4685L137.204 96.0188L138.164 95.6197L137.181 91.6934L135.972 91.9851C135.585 92.0823 135.113 92.1958 134.576 92.3315C134.027 92.4328 133.442 92.7104 132.789 92.9636C132.147 93.2533 131.399 93.4458 130.706 93.9098C130.01 94.3514 129.205 94.7201 128.496 95.3117C127.809 95.9215 126.981 96.4503 126.369 97.2242C125.7 97.9495 125.04 98.7113 124.527 99.5784C123.934 100.405 123.531 101.313 123.105 102.21C122.72 103.108 122.41 104.025 122.157 104.917C121.677 106.704 121.462 108.401 121.379 109.854C121.31 111.309 121.351 112.518 121.436 113.393C121.466 113.807 121.523 114.208 121.563 114.485L121.614 114.826L121.667 114.814C122.027 116.497 122.857 118.044 124.059 119.275C125.262 120.507 126.789 121.372 128.463 121.772C130.137 122.172 131.891 122.09 133.52 121.535C135.15 120.981 136.589 119.976 137.671 118.637C138.753 117.299 139.434 115.681 139.636 113.971C139.837 112.262 139.55 110.53 138.809 108.977C138.067 107.423 136.901 106.112 135.444 105.194C133.988 104.275 132.302 103.788 130.581 103.788Z" fill="#3840A9"/>
</g>
<defs>
<filter id="filter0_d_103_10329" x="0.0747757" y="0.525529" width="238.604" height="238.712" filterUnits="userSpaceOnUse" color-interpolation-filters="sRGB">
<feFlood flood-opacity="0" result="BackgroundImageFix"/>
<feColorMatrix in="SourceAlpha" type="matrix" values="0 0 0 0 0 0 0 0 0 0 0 0 0 0 0 0 0 0 127 0" result="hardAlpha"/>
<feOffset dy="13.024"/>
<feGaussianBlur stdDeviation="39.072"/>
<feComposite in2="hardAlpha" operator="out"/>
<feColorMatrix type="matrix" values="0 0 0 0 0 0 0 0 0 0 0 0 0 0 0 0 0 0 0.1 0"/>
<feBlend mode="normal" in2="BackgroundImageFix" result="effect1_dropShadow_103_10329"/>
<feBlend mode="normal" in="SourceGraphic" in2="effect1_dropShadow_103_10329" result="shape"/>
</filter>
</defs>
</svg>
